<svg width="900" height="392" viewBox="0 0 900 392" fill="none" xmlns="http://www.w3.org/2000/svg">
<g clip-path="url(#clip0_0_1)">
<path fill-rule="evenodd" clip-rule="evenodd" d="M400.775 95.7559C406.253 107.228 402.554 187.344 396.139 215.439C389.724 243.58 383.309 279.354 381.811 309.462C381.155 322.292 383.122 327.349 391.504 327.349C406.3 327.349 425.077 296.164 448.629 296.867C472.229 297.569 479.721 332.64 490.771 332.406C501.822 332.172 510.719 328.333 510.812 294.198C511.14 192.307 425.732 109.709 400.775 95.7559Z" fill="black"/>
<path fill-rule="evenodd" clip-rule="evenodd" d="M474.851 177.183C480.049 185.94 493.3 179.197 493.862 169.317C494.424 159.437 492.972 146.982 486.557 146.513C480.142 146.045 475.553 139.63 469.139 139.162C462.724 138.694 455.84 145.109 452.844 136.587C449.847 128.065 460.897 124.459 469.139 123.101C461.787 115.75 457.479 107.602 454.248 99.1272C451.017 90.652 448.629 82.8791 457.667 79.5546C466.704 76.2301 465.954 93.321 476.303 101.141C473.259 89.6219 472.135 84.8458 472.369 78.1499C472.604 71.454 472.135 66.3501 481.641 67.6612C491.146 68.9723 487.025 88.7322 494.424 96.786C496.671 89.1536 498.029 79.461 503.461 75.4809C508.892 71.5008 521.254 71.4072 513.388 87.7489C505.521 104.091 515.682 112.94 513.294 125.817C510.906 138.694 503.508 136.353 500.324 144.641C497.14 152.928 502.197 171.799 496.203 180.274C490.21 188.749 489.133 201.766 493.019 212.161C481.079 201.017 474.851 177.183 474.851 177.183Z" fill="black"/>
<path fill-rule="evenodd" clip-rule="evenodd" d="M400.447 188.187C395.624 221.245 378.861 225.178 378.018 238.898C377.175 252.618 382.467 253.929 382.139 266.618C381.811 279.307 370.526 284.458 369.168 291.341C367.811 298.225 374.975 300.425 379.142 300.425C383.309 300.425 387.477 282.164 389.162 270.551C390.848 258.939 383.637 252.103 383.637 244.142C383.637 236.182 394.079 221.62 392.159 234.403C400.822 220.73 404.943 203.311 400.447 188.187Z" fill="black"/>
<path fill-rule="evenodd" clip-rule="evenodd" d="M406.91 200.782C403.257 218.669 380.454 318.546 392.066 319.81C403.679 321.074 420.208 288.906 447.272 289.14C474.384 289.374 485.059 325.195 491.662 324.961C498.264 324.726 502.619 327.302 503.321 286.939C504.023 246.577 479.394 195.023 464.831 172.313C445.071 173.577 423.813 189.405 406.91 200.782Z" fill="white"/>
<path d="M464.653 179.009C463.572 167.826 455.284 160.807 444.561 159.091C434.205 157.433 422.931 162.341 415.681 169.591C407.527 177.745 407.201 189.087 412.91 198.748C418.543 208.28 431.02 211.43 441.241 209.046C455.227 205.785 465.562 193.553 464.653 179.009Z" fill="black"/>
<path d="M459.502 183.176C458.531 193.339 450.432 201.504 440.679 203.873C430.358 206.379 418.962 202.405 415.253 191.792C413.36 186.373 413.712 180.815 416.968 176.055C419.715 172.042 424.144 168.901 428.531 166.907C437.586 162.793 450.533 162.336 456.841 171.51C459.231 174.987 459.649 179.079 459.502 183.176Z" fill="url(#paint0_radial_0_1)" stroke="black" stroke-width="0.650339"/>
<g clip-path="url(#clip1_0_1)">
<path d="M473.777 224.096H419.654C418.629 224.096 417.646 224.503 416.921 225.228C416.196 225.953 415.788 226.936 415.788 227.962V270.487C415.788 271.512 416.196 272.495 416.921 273.22C417.646 273.945 418.629 274.353 419.654 274.353H473.777C474.802 274.353 475.785 273.945 476.51 273.22C477.235 272.495 477.643 271.512 477.643 270.487V227.962C477.643 226.936 477.235 225.953 476.51 225.228C475.785 224.503 474.802 224.096 473.777 224.096ZM419.654 227.962H473.777V232.214H419.654V227.962ZM419.654 270.487V235.307H473.777V270.487H419.654Z" fill="black"/>
<path d="M456.38 258.889H444.783V262.755H456.38V258.889Z" fill="black"/>
<path d="M425.453 244.74L438.578 250.771L425.453 256.782V261.034L444.009 252.51V249.012L425.453 240.487V244.74Z" fill="black"/>
</g>
</g>
<g clip-path="url(#clip2_0_1)">
<path d="M483.027 62.5903L444.335 82.5371C443.489 83.0341 443.245 83.7759 443.252 84.8515L443.326 86.1941L484.177 107.142L524.931 86.528C524.931 86.528 524.975 86.3203 524.975 85.5933C524.975 85.5933 524.938 84.6364 524.723 84.1913C524.486 83.6869 523.981 83.2344 523.655 82.9599C522.787 82.2404 521.919 81.6025 520.443 80.7716C499.28 68.8065 485.364 62.6422 485.364 62.6422C484.466 62.3084 483.724 62.1897 483.027 62.5903Z" fill="#DEA66C"/>
<path d="M443.86 130.331C446.115 131.822 450.232 133.78 454.394 136.035C464.067 141.272 476.291 147.637 482.374 150.137C483.198 150.478 483.687 150.641 484.258 150.671C484.681 150.693 485.378 150.411 485.378 150.411C485.378 150.411 484.243 109.472 484.177 107.135C484.11 104.85 483.153 104.094 482.307 103.545C480.987 102.699 478.124 101.379 478.124 101.379C478.124 101.379 468.095 96.3938 458.08 91.1419C453.318 88.642 449.298 86.0828 444.973 83.9762C444.179 83.5978 443.245 84.0726 443.245 84.9627V129.322C443.245 129.745 443.504 130.101 443.86 130.331Z" fill="#B38251"/>
<path d="M523.855 130.59L485.46 150.389C484.844 150.708 484.11 150.263 484.11 149.565L484.177 107.15C484.177 106.742 484.051 105.844 483.925 105.488C483.576 104.45 484.333 104.034 484.674 103.864L522.757 84.2506C523.766 83.7314 524.975 84.4658 524.975 85.6007V128.766C524.975 129.53 524.545 130.234 523.855 130.59Z" fill="#966239"/>
<path opacity="0.5" d="M506.705 94.3019C506.705 94.3019 485.66 105.065 485.319 105.978C484.978 106.883 501.831 98.7823 503.805 97.7661C506.037 96.6163 523.573 87.24 523.573 86.209C523.581 85.3633 506.705 94.3019 506.705 94.3019Z" fill="#212121"/>
<g opacity="0.5">
<path d="M446.138 127.875C448.875 129.255 451.59 130.679 454.972 132.408V131.087C451.605 129.366 448.882 127.95 446.138 126.555V127.875Z" fill="#212121"/>
<path d="M451.901 128.476C452.673 128.869 453.059 129.07 453.785 129.441C453.793 127.141 453.793 125.991 453.8 123.692C453.073 123.321 452.695 123.128 451.931 122.735C451.916 125.034 451.909 126.177 451.901 128.476Z" fill="#212121"/>
<path d="M447.109 126.014C447.747 126.34 448.103 126.525 448.83 126.896L448.867 121.17C448.133 120.791 447.777 120.613 447.132 120.272C447.124 122.572 447.117 123.721 447.109 126.014Z" fill="#212121"/>
<path d="M450.692 122.787C452.45 123.684 453.385 124.166 454.935 124.953C454.164 123.551 453.741 122.839 452.895 121.4C452.027 121.963 451.575 122.238 450.692 122.787Z" fill="#212121"/>
<path d="M446.138 120.45C447.451 121.133 448.333 121.585 450.069 122.475C449.209 121.029 448.778 120.309 447.985 118.892C447.176 119.478 446.798 119.782 446.138 120.45Z" fill="#212121"/>
</g>
<g opacity="0.5">
<path d="M460.232 134.218C460.847 134.537 461.166 134.707 461.782 135.026C461.738 132.297 461.715 130.932 461.663 128.202C461.07 127.89 460.773 127.734 460.18 127.43C460.202 130.145 460.209 131.503 460.232 134.218Z" fill="#212121"/>
<path d="M457.969 133.736C460.224 134.923 461.975 135.813 464.141 136.97C464.126 136.191 463.525 135.249 462.709 134.811C461.433 134.136 460.706 133.765 459.416 133.09C458.585 132.667 457.969 132.972 457.969 133.736Z" fill="#212121"/>
<path d="M462.264 126.028L463.214 128.039C462.917 128.669 462.761 128.988 462.45 129.611C462.717 129.589 462.85 129.582 463.117 129.559C463.473 129.085 463.651 128.847 463.993 128.372C463.681 127.638 463.518 127.267 463.191 126.533C464.096 127.03 464.541 127.282 465.365 127.764C465.365 130.42 463.629 131.592 461.018 130.227C458.407 128.869 456.678 125.836 456.678 123.172C458.622 124.144 459.928 124.782 462.264 126.028Z" fill="#212121"/>
</g>
<path d="M511.363 89.7769C510.993 89.5025 471.166 68.6952 471.166 68.6952L458.807 75.082L499.643 96.1415L499.665 96.1638L511.616 90.044C511.616 90.044 511.593 89.9846 511.527 89.9105C511.475 89.866 511.386 89.7992 511.363 89.7769Z" fill="#FFE0B2"/>
<path d="M511.556 89.955C504.791 93.2857 499.643 96.1416 499.643 96.1416C499.814 96.3122 499.821 96.5347 499.821 96.646C499.799 97.5065 499.784 98.1889 499.762 99.042C499.658 103.456 499.599 107.877 499.45 112.29C499.947 111.994 500.548 112.646 501.001 112.29C501.698 111.741 503.181 109.323 503.404 109.249C503.701 109.153 504.02 109.227 504.324 109.212C505.659 109.138 508.648 106.415 509.286 106.289C509.902 106.171 511.935 106.564 511.935 106.564C511.935 106.564 511.794 93.1002 511.742 90.8377C511.727 90.0366 511.556 89.955 511.556 89.955Z" fill="#BF9F85"/>
</g>
<defs>
<radialGradient id="paint0_radial_0_1" cx="0" cy="0" r="1" gradientUnits="userSpaceOnUse" gradientTransform="translate(425.339 176.106) scale(35.5836 35.5836)">
<stop stop-color="white"/>
<stop offset="0.0604" stop-color="#FBC8B4"/>
<stop offset="0.0712" stop-color="#FBC3B0"/>
<stop offset="0.1829" stop-color="#F7978B"/>
<stop offset="0.2995" stop-color="#F4716B"/>
<stop offset="0.4199" stop-color="#F15251"/>
<stop offset="0.5453" stop-color="#EF3A3D"/>
<stop offset="0.6778" stop-color="#EE292F"/>
<stop offset="0.822" stop-color="#ED1F27"/>
<stop offset="1" stop-color="#ED1C24"/>
</radialGradient>
<clipPath id="clip0_0_1">
<rect width="146.936" height="264.953" fill="white" transform="translate(369 67.4544)"/>
</clipPath>
<clipPath id="clip1_0_1">
<rect width="69.5863" height="69.5863" fill="white" transform="translate(411.922 214.431)"/>
</clipPath>
<clipPath id="clip2_0_1">
<rect width="94.9495" height="94.9495" fill="white" transform="translate(436.635 59)"/>
</clipPath>
</defs>
</svg>
